<?xml version="1.0" encoding="UTF-8"?>
<svg id="Layer_2" data-name="Layer 2" xmlns="http://www.w3.org/2000/svg" viewBox="0 0 293 273">
  <defs>
    <style>
      .cls-1 {
        fill: #fff;
      }

      .cls-2 {
        fill: #f60;
      }
    </style>
  </defs>
  <g id="Capa_1" data-name="Capa 1">
    <g>
      <rect class="cls-2" width="293" height="273" rx="41.47" ry="41.47"/>
      <path class="cls-1" d="M141.88,111.92l-3.64-2.66c.19-.75.28-1.49.28-2.24s-.09-1.49-.28-2.24l3.64-2.66c.56-.47.91-1.03,1.05-1.68.14-.65.02-1.31-.35-1.96l-3.08-5.32c-.37-.65-.89-1.07-1.54-1.26-.65-.19-1.31-.14-1.96.14l-4.2,1.82c-.47-.47-1-.89-1.61-1.26-.61-.37-1.28-.7-2.03-.98l-.56-4.48c-.09-.75-.4-1.35-.91-1.82s-1.14-.7-1.89-.7h-6.15c-.75,0-1.38.23-1.89.7-.51.47-.82,1.07-.91,1.82l-.56,4.48c-.75.28-1.42.61-2.03.98-.61.37-1.14.79-1.61,1.26l-4.2-1.82c-.65-.28-1.31-.33-1.96-.14-.65.19-1.17.61-1.54,1.26l-3.08,5.32c-.37.65-.49,1.31-.35,1.96.14.65.49,1.21,1.05,1.68l3.64,2.66c-.19.75-.28,1.49-.28,2.24s.09,1.49.28,2.24l-3.64,2.66c-.56.47-.91,1.03-1.05,1.68-.14.65-.02,1.31.35,1.96l3.08,5.32c.37.65.89,1.07,1.54,1.26.65.19,1.31.14,1.96-.14l4.2-1.82c.47.47,1,.89,1.61,1.26.61.37,1.28.7,2.03.98l.56,4.48c.09.75.4,1.35.91,1.82.51.47,1.14.7,1.89.7h6.15c.75,0,1.38-.23,1.89-.7.51-.47.82-1.07.91-1.82l.56-4.48c.75-.28,1.42-.61,2.03-.98.61-.37,1.14-.79,1.61-1.26l4.2,1.82c.65.28,1.31.33,1.96.14.65-.19,1.17-.61,1.54-1.26l3.08-5.32c.37-.65.49-1.31.35-1.96-.14-.65-.49-1.21-1.05-1.68ZM127.69,112.97c-1.63,1.63-3.61,2.45-5.94,2.45s-4.31-.82-5.94-2.45c-1.63-1.63-2.45-3.61-2.45-5.94s.82-4.31,2.45-5.94c1.63-1.63,3.61-2.45,5.94-2.45s4.31.82,5.94,2.45c1.63,1.63,2.45,3.61,2.45,5.94s-.82,4.31-2.45,5.94ZM88.05,190.25c-9.34-8.52-16.58-18.28-21.74-29.28-5.16-11.01-7.74-22.46-7.74-34.36,0-23.18,8.12-42.89,24.36-59.12,16.24-16.23,35.96-24.34,59.17-24.34,19.09,0,36.15,5.7,51.2,17.11,15.05,11.41,24.82,26.21,29.32,44.4l11.48,45.35c.74,2.8.22,5.35-1.56,7.63-1.78,2.29-4.14,3.43-7.1,3.43h-19.46v31.37c0,4.89-1.74,9.07-5.22,12.55-3.48,3.48-7.66,5.22-12.55,5.22h-21.54v12.28c0,2.09-.71,3.84-2.12,5.25-1.41,1.41-3.16,2.12-5.25,2.12s-3.84-.71-5.25-2.12c-1.41-1.41-2.12-3.16-2.12-5.25v-18.1c0-2.56.85-4.69,2.55-6.39,1.7-1.7,3.81-2.54,6.33-2.54h27.4c.88,0,1.61-.28,2.17-.85.57-.57.85-1.29.85-2.17v-37.23c0-2.52.85-4.63,2.55-6.33,1.7-1.7,3.81-2.55,6.33-2.55h17.65l-9.34-38.08c-3.77-14.97-11.82-27.1-24.17-36.41-12.35-9.3-26.4-13.96-42.16-13.96-19,0-35.21,6.64-48.64,19.93-13.43,13.28-20.15,29.44-20.15,48.46,0,9.81,2.01,19.13,6.02,27.96,4.01,8.83,9.7,16.68,17.07,23.55l6.39,5.89v38.82c0,2.09-.71,3.84-2.12,5.25-1.41,1.41-3.16,2.12-5.25,2.12s-3.84-.71-5.25-2.12c-1.41-1.41-2.12-3.16-2.12-5.25v-32.24ZM178.31,130.29c-2.56-2.56-5.78-3.85-9.57-3.85-2.13,0-4.17.46-6.07,1.37-1.41.68-2.68,1.55-3.79,2.6-1.11-1.06-2.37-1.93-3.79-2.6-1.89-.91-3.94-1.37-6.07-1.37-3.79,0-7.01,1.3-9.57,3.85-2.56,2.56-3.85,5.77-3.85,9.57,0,4.53,1.69,8.71,5.03,12.44,3.14,3.5,6.7,7.08,10.58,10.64l3.73,3.41c.55.55,1.2.95,1.92,1.2.67.23,1.35.35,2.01.35s1.34-.12,2.01-.35c.73-.25,1.37-.65,1.87-1.16l3.71-3.39c3.96-3.56,7.56-7.15,10.68-10.68,3.32-3.75,5-7.94,5-12.46,0-3.79-1.3-7.01-3.85-9.57Z"/>
    </g>
  </g>
</svg>
